<?xml version="1.0" standalone="no"?>
<!DOCTYPE svg PUBLIC "-//W3C//DTD SVG 20010904//EN"
 "http://www.w3.org/TR/2001/REC-SVG-20010904/DTD/svg10.dtd">
<svg version="1.0" xmlns="http://www.w3.org/2000/svg"
 width="1024.000000pt" height="1024.000000pt" viewBox="0 0 1024.000000 1024.000000"
 preserveAspectRatio="xMidYMid meet">

<g transform="translate(0.000000,1024.000000) scale(0.100000,-0.100000)"
fill="#000000" stroke="none">
<path d="M4885 8859 c-170 -55 -413 -133 -540 -174 -126 -41 -270 -86 -320
-100 -49 -15 -193 -60 -320 -100 -126 -41 -261 -83 -300 -93 -219 -61 -442
-136 -467 -159 -37 -33 -22 -38 417 -139 137 -31 457 -115 589 -155 140 -41
139 -41 166 34 39 106 62 157 72 157 5 0 18 19 28 43 23 51 147 149 255 201
128 63 309 119 450 140 22 4 67 11 100 16 154 25 436 4 664 -50 308 -72 487
-164 611 -311 59 -71 78 -107 110 -202 22 -68 22 -68 54 -62 78 17 365 99 629
181 43 13 84 24 91 24 13 0 26 -163 26 -315 l0 -60 -40 -17 c-69 -29 -100
-129 -64 -205 26 -54 53 -66 145 -64 44 1 88 5 98 9 33 13 83 80 88 120 7 55
-25 124 -65 141 -17 7 -33 20 -36 28 -4 8 -3 117 1 242 4 155 9 216 15 194 5
-18 14 -33 21 -33 26 1 96 20 140 39 35 15 45 24 40 37 -9 23 -86 54 -154 61
-52 5 -59 9 -68 34 -16 46 -54 63 -145 65 -45 1 -99 8 -121 16 -22 8 -125 39
-230 67 -104 29 -253 72 -330 96 -77 24 -194 60 -260 80 -66 20 -199 63 -295
96 -96 32 -227 73 -290 90 -63 16 -180 52 -259 80 -79 27 -155 49 -170 49 -14
-1 -165 -46 -336 -101z"/>
<path d="M5000 8391 c-124 -19 -262 -56 -350 -93 -104 -45 -221 -109 -259
-143 -41 -38 -114 -157 -149 -245 -29 -71 -80 -278 -89 -354 l-6 -58 50 36
c121 87 377 176 648 226 146 27 179 30 381 30 234 0 348 -11 566 -54 157 -32
249 -65 413 -149 71 -37 131 -65 133 -62 9 9 -21 223 -43 312 -54 211 -124
300 -314 397 -117 60 -213 92 -412 137 -176 40 -394 48 -569 20z"/>
<path d="M5119 7650 c-130 -9 -148 -12 -274 -46 -123 -34 -195 -65 -195 -85 0
-46 -185 -239 -575 -604 -706 -661 -725 -681 -725 -775 0 -45 11 -72 43 -107
16 -18 31 -23 66 -23 25 1 56 6 68 13 13 7 105 93 206 192 101 99 215 209 253
245 38 36 179 171 314 300 352 337 659 620 770 710 56 45 77 66 111 109 l19
24 36 -19 c75 -40 262 -212 769 -705 93 -91 242 -233 330 -316 88 -83 243
-236 345 -339 102 -104 196 -197 210 -206 35 -25 101 -23 135 4 32 25 55 74
55 118 0 65 -30 104 -236 310 -112 113 -204 209 -204 214 0 5 9 6 20 3 41 -11
45 11 48 312 5 331 1 358 -56 393 -32 20 -50 23 -129 23 -83 0 -94 -2 -117
-24 -33 -31 -70 -25 -151 22 -33 20 -72 39 -87 42 l-27 7 18 -60 c20 -65 59
-141 95 -187 23 -28 29 -30 113 -35 l88 -5 3 -152 c2 -138 1 -153 -14 -153
-10 0 -94 75 -188 168 -94 92 -217 209 -273 260 -57 52 -124 121 -150 155 -26
34 -37 54 -25 43 14 -12 50 -22 102 -29 69 -9 85 -8 115 6 19 9 35 20 35 25 0
32 -200 94 -470 146 -73 14 -300 37 -337 35 -10 -1 -70 -5 -134 -9z"/>
<path d="M7136 7380 c-44 -49 -69 -147 -85 -325 -32 -351 -43 -464 -51 -500
-16 -68 -14 -72 35 -78 60 -9 72 -2 80 41 4 20 12 60 18 87 l11 50 11 -110 10
-110 30 4 c45 7 77 6 107 -2 l27 -7 3 112 c3 118 7 120 33 26 21 -75 35 -88
96 -88 27 0 49 2 49 5 0 3 -9 65 -19 138 -11 73 -27 215 -36 317 -24 278 -49
394 -94 434 -28 25 -204 30 -225 6z"/>
<path d="M5115 7091 c-78 -19 -166 -99 -192 -175 -27 -77 -24 -199 5 -254 54
-101 144 -170 235 -179 66 -7 181 24 218 59 33 31 93 107 110 138 49 94 12
274 -72 344 -48 40 -77 53 -156 65 -79 12 -104 12 -148 2z m154 -188 c1 4 16
1 35 -7 18 -7 52 -17 75 -21 25 -4 53 -18 69 -33 l26 -27 -113 -3 c-63 -1
-114 -1 -115 0 -1 2 0 32 3 68 3 49 6 59 12 40 4 -14 7 -22 8 -17z m-121 -70
c3 -10 -22 -13 -104 -13 -66 0 -104 4 -98 9 22 22 195 25 202 4z"/>
<path d="M3863 6180 c-32 -34 -86 -79 -121 -102 l-64 -41 4 -541 3 -541 24
-47 c37 -72 103 -151 157 -187 95 -63 60 -61 1059 -61 501 0 1056 1 1235 2
305 3 328 4 370 24 72 33 141 100 184 177 l38 70 6 548 c6 605 10 565 -60 600
-21 11 -70 49 -109 84 -39 36 -74 65 -79 65 -4 0 -10 -10 -14 -22 -3 -13 -6
-290 -6 -616 0 -626 0 -625 -45 -662 -13 -11 -224 -14 -1213 -14 -1325 -1
-1240 -5 -1274 64 -17 32 -18 84 -18 648 0 382 -4 612 -10 612 -5 0 -35 -27
-67 -60z"/>
<path d="M4172 6167 c-19 -20 -22 -35 -22 -99 0 -42 3 -83 6 -92 5 -14 37 -16
250 -16 l244 0 0 95 c0 137 12 130 -246 133 -208 2 -211 2 -232 -21z"/>
<path d="M5780 6163 c-19 -25 -21 -38 -18 -110 1 -45 6 -84 10 -88 8 -9 450
-9 477 0 19 6 21 14 21 96 0 134 10 129 -254 129 l-215 0 -21 -27z"/>
<path d="M4882 6084 l-35 -35 6 -127 c4 -70 7 -308 7 -529 l0 -402 353 -3
c193 -2 353 -3 354 -3 1 0 3 245 4 545 l2 544 -27 23 c-27 23 -28 23 -328 23
l-300 0 -36 -36z m528 -464 c30 -30 26 -73 -10 -104 -26 -22 -34 -24 -61 -14
-40 14 -56 48 -40 86 21 50 77 66 111 32z"/>
<path d="M5889 5892 l-126 -3 -7 -46 c-3 -25 -6 -79 -6 -119 0 -66 2 -74 26
-93 25 -20 39 -21 241 -21 214 0 214 0 238 25 27 26 31 60 19 187 l-7 67 -126
3 c-69 2 -183 2 -252 0z"/>
<path d="M4152 5767 c4 -163 -9 -155 260 -159 264 -3 248 -13 248 159 l0 123
-255 -2 -256 -2 3 -119z"/>
<path d="M3938 4333 c-44 -48 -58 -76 -58 -114 0 -48 41 -93 99 -109 54 -14
85 3 112 65 25 57 18 86 -36 141 -49 52 -80 56 -117 17z"/>
<path d="M8373 4286 c-32 -29 -37 -39 -37 -84 -1 -40 4 -56 23 -76 61 -64 174
-30 200 61 11 39 -8 80 -52 111 -48 32 -90 29 -134 -12z m136 -21 c40 -46 40
-80 -1 -122 -24 -24 -41 -33 -65 -33 -81 0 -114 103 -52 161 43 40 79 38 118
-6z"/>
<path d="M8400 4251 c-23 -44 -5 -111 30 -111 20 0 55 38 65 72 15 46 -72 82
-95 39z m70 -25 c0 -16 -26 -46 -40 -46 -17 0 -19 17 -4 38 17 25 44 29 44 8z"/>
<path d="M2165 3973 c7 -346 10 -390 37 -461 40 -106 165 -201 309 -232 160
-35 376 72 445 221 l29 64 3 343 3 342 -100 0 -100 0 -3 -323 -3 -324 -28 -42
c-40 -61 -97 -84 -193 -79 -81 4 -112 20 -151 78 -39 56 -43 95 -43 398 l0
292 -105 0 -106 0 6 -277z"/>
<path d="M5003 4243 l-63 -4 0 -481 c0 -434 2 -480 16 -474 9 3 145 6 303 6
l287 0 3 74 c2 67 0 76 -19 86 -14 7 -86 10 -220 8 l-200 -3 0 398 0 397 -22
-2 c-13 -1 -51 -3 -85 -5z"/>
<path d="M3429 4020 c-60 -10 -79 -21 -118 -65 l-31 -36 0 43 0 43 -80 0 -80
0 0 -310 c0 -170 3 -334 7 -363 l6 -53 83 3 84 3 0 244 0 243 38 38 c68 68
161 77 221 21 l31 -29 0 -262 0 -262 31 6 c17 3 58 6 90 6 l59 0 0 272 c0 254
-1 274 -21 314 -51 107 -186 168 -320 144z"/>
<path d="M4467 4005 c-52 -19 -95 -52 -119 -89 l-20 -31 5 58 4 57 -74 0 -73
0 0 -347 c0 -192 4 -354 8 -361 6 -9 27 -11 81 -6 l73 7 -3 238 -4 237 25 27
c37 40 120 85 158 85 38 0 79 -19 107 -50 19 -21 20 -40 25 -283 l5 -262 75 3
c41 2 76 5 77 6 1 1 3 121 5 267 l3 265 -26 50 c-28 55 -100 115 -159 133 -50
15 -126 13 -173 -4z"/>
<path d="M5782 4000 c-160 -57 -250 -201 -240 -384 7 -138 71 -241 190 -303
50 -26 61 -28 173 -28 l120 1 97 44 c54 25 98 50 98 57 0 6 -25 34 -57 61
l-56 50 -24 -28 c-55 -65 -188 -78 -276 -27 -62 37 -80 61 -81 109 l-1 43 259
-4 259 -3 -5 98 c-9 172 -69 256 -221 313 -72 26 -162 27 -235 1z m206 -122
c36 -11 71 -53 95 -114 l16 -42 -172 -7 c-221 -9 -222 -9 -221 33 2 42 25 76
73 107 62 41 126 48 209 23z"/>
<path d="M6520 4005 c-36 -7 -85 -21 -109 -29 -24 -9 -52 -16 -62 -16 -11 0
-19 -5 -19 -12 0 -9 54 -113 65 -126 2 -2 16 6 32 17 33 25 122 51 173 51 84
0 161 -49 173 -110 11 -54 6 -57 -126 -63 -158 -6 -240 -31 -301 -90 -91 -87
-88 -211 6 -292 75 -64 224 -73 349 -20 101 42 99 42 99 6 l0 -31 76 0 c74 0
76 1 70 23 -4 12 -11 119 -16 237 -5 118 -12 237 -15 264 -9 98 -82 164 -211
191 -82 17 -99 17 -184 0z m253 -421 c6 -34 -7 -91 -27 -113 -9 -10 -36 -28
-62 -40 -38 -19 -57 -22 -116 -19 -62 3 -73 7 -94 31 -25 30 -31 75 -14 107
13 24 60 39 156 49 143 15 151 14 157 -15z"/>
<path d="M7226 4006 c-68 -20 -136 -65 -169 -112 -24 -35 -29 -52 -29 -101 0
-72 17 -109 71 -155 34 -29 59 -38 158 -61 133 -31 183 -55 183 -89 -1 -30
-18 -51 -59 -73 -51 -26 -121 -16 -220 30 l-83 39 -44 -46 c-24 -26 -44 -51
-44 -56 0 -20 166 -91 239 -103 223 -34 401 83 378 251 -11 85 -75 126 -287
185 -104 29 -132 48 -132 91 0 55 78 93 165 80 40 -6 57 -15 121 -60 27 -19
27 -19 44 5 9 13 29 37 45 53 15 16 26 34 23 41 -2 8 -38 30 -79 50 -62 31
-87 37 -153 41 -49 2 -97 -2 -128 -10z"/>
<path d="M7856 3995 c-66 -27 -137 -90 -167 -147 -11 -21 -26 -69 -34 -108
-33 -159 -10 -248 94 -350 54 -53 78 -70 134 -89 79 -27 181 -30 252 -6 38 13
157 76 175 93 3 2 -20 26 -50 52 l-54 49 -33 -29 c-69 -61 -195 -67 -274 -13
-54 37 -75 66 -85 117 l-7 38 267 -8 266 -7 0 51 c0 103 -36 210 -95 280 -14
17 -58 47 -97 67 -64 32 -79 35 -152 35 -63 0 -94 -6 -140 -25z m242 -131 c50
-30 72 -60 79 -111 l5 -38 -188 3 c-104 2 -191 5 -193 8 -11 11 22 83 52 112
67 65 162 75 245 26z"/>
<path d="M3900 3640 l0 -361 78 3 77 3 3 358 2 357 -80 0 -80 0 0 -360z"/>
<path d="M5140 2832 c-56 -56 -60 -132 -11 -201 48 -67 113 -62 177 13 45 53
50 75 25 124 -47 92 -134 121 -191 64z"/>
<path d="M3290 2750 c-162 -3 -296 -7 -297 -8 -6 -5 -2 -58 5 -69 6 -9 183
-14 737 -19 829 -7 1207 3 1267 31 36 18 55 42 43 54 -17 17 -1100 24 -1755
11z"/>
<path d="M5537 2751 c-125 -5 -160 -9 -167 -21 -21 -32 -1 -52 62 -62 83 -13
1346 -21 1700 -10 269 7 321 11 342 26 14 9 26 23 26 30 0 41 8 41 -919 42
-487 0 -957 -2 -1044 -5z"/>
</g>
</svg>
